<?xml version="1.0" encoding="UTF-8"?>
<svg id="Layer_2" xmlns="http://www.w3.org/2000/svg" xmlns:xlink="http://www.w3.org/1999/xlink" viewBox="0 0 65 65">
  <defs>
    <style>
      .cls-1 {
        fill: url(#linear-gradient-2);
      }

      .cls-2 {
        fill: url(#radial-gradient);
      }

      .cls-3 {
        fill: url(#radial-gradient-3);
      }

      .cls-4 {
        fill: url(#linear-gradient-3);
      }

      .cls-5 {
        fill: url(#radial-gradient-2);
      }

      .cls-6 {
        fill: url(#linear-gradient);
      }
    </style>
    <linearGradient id="linear-gradient" x1="0" y1="32.5" x2="65" y2="32.5" gradientUnits="userSpaceOnUse">
      <stop offset="0" stop-color="#0097bf"/>
      <stop offset="1" stop-color="#15baff"/>
    </linearGradient>
    <linearGradient id="linear-gradient-2" x1="11.22" y1="35.63" x2="36.78" y2="16.37" gradientUnits="userSpaceOnUse">
      <stop offset="0" stop-color="#ff8e3f"/>
      <stop offset="1" stop-color="#ffe453"/>
    </linearGradient>
    <linearGradient id="linear-gradient-3" x1="16.51" y1="50.82" x2="49.14" y2="26.23" gradientUnits="userSpaceOnUse">
      <stop offset="0" stop-color="#e6e6e6"/>
      <stop offset="1" stop-color="#ccc"/>
    </linearGradient>
    <radialGradient id="radial-gradient" cx="22.25" cy="53" fx="22.25" fy="53" r="3.87" gradientTransform="translate(0 -53) scale(1 2)" gradientUnits="userSpaceOnUse">
      <stop offset="0" stop-color="#def2f7"/>
      <stop offset=".89" stop-color="#15baff"/>
      <stop offset="1" stop-color="#0199c3"/>
    </radialGradient>
    <radialGradient id="radial-gradient-2" cx="31.25" cy="57" fx="31.25" fy="57" gradientTransform="translate(0 -57) scale(1 2)" xlink:href="#radial-gradient"/>
    <radialGradient id="radial-gradient-3" cx="40.25" fx="40.25" xlink:href="#radial-gradient"/>
  </defs>
  <g id="Layer_1-2" data-name="Layer_1">
    <g id="Patchy_Rain_Possible">
      <g id="Day">
        <circle class="cls-6" cx="32.5" cy="32.5" r="32.5"/>
        <circle class="cls-1" cx="24" cy="26" r="16"/>
        <path class="cls-4" d="M50.3,33.11c.08-.53.14-1.08.14-1.63,0-5.78-4.69-10.47-10.47-10.47-3.62,0-6.81,1.83-8.69,4.62-1.38-.64-2.97-1.01-4.67-1.01-5.19,0-9.39,3.4-9.39,7.58,0,.12.02.24.02.36h-.02c-3.97,0-7.22,3.25-7.22,7.22s3.25,7.22,7.22,7.22h30.33c3.97,0,7.22-3.25,7.22-7.22,0-3-1.85-5.59-4.47-6.67Z"/>
        <g>
          <path class="cls-2" d="M25.37,54.38c0,1.72-1.39,3.12-3.12,3.12s-3.12-1.39-3.12-3.12,1.39-5.88,3.12-5.88,3.12,4.16,3.12,5.88Z"/>
          <path class="cls-5" d="M34.37,58.38c0,1.72-1.39,3.12-3.12,3.12s-3.12-1.39-3.12-3.12,1.39-5.88,3.12-5.88,3.12,4.16,3.12,5.88Z"/>
          <path class="cls-3" d="M43.37,54.38c0,1.72-1.39,3.12-3.12,3.12s-3.12-1.39-3.12-3.12,1.39-5.88,3.12-5.88,3.12,4.16,3.12,5.88Z"/>
        </g>
      </g>
    </g>
  </g>
</svg>